D:\school\WTK\thesis\model\3dpredictsim\Results\batch_windlass\Pog_s1_tmt_bCst_d05_k500_WL10_ig24_act_TTC_GRF.mot
nRows=17
nColumns=19

name D:\school\WTK\thesis\model\3dpredictsim\Results\batch_windlass\Pog_s1_tmt_bCst_d05_k500_WL10_ig24_act_TTC_GRF.mot
datacolumns 19
datarows 17
range 0.5557002618 0.7335243456
endheader
time 	ground_force_vx	ground_force_vy	ground_force_vz	ground_force_px	ground_force_py	ground_force_pz	1_ground_force_vx	1_ground_force_vy	1_ground_force_vz	1_ground_force_px	1_ground_force_py	1_ground_force_pz	ground_torque_x	ground_torque_y	ground_torque_z	1_ground_torque_x	1_ground_torque_y	1_ground_torque_z
        0.5557002618	      103.1024611373	      430.5526265443	       -4.1049952705	        0.3387398276	        0.0000000000	        0.0393950575	      -43.2457743110	       31.9620703905	       -5.0637517682	        0.8922801252	        0.0000000000	       -0.0719139968	        0.0000000000	        0.0000000000	        0.0000000000	        0.0000000000	        0.0000000000	        0.0000000000	
        0.5668142671	       75.8178091553	      330.4927584756	        1.6582954607	        0.3465010841	        0.0000000000	        0.0359864649	     -103.8868424267	       89.1383089328	      -13.1805984696	        0.9059024479	        0.0000000000	       -0.0697602970	        0.0000000000	        0.0000000000	        0.0000000000	        0.0000000000	        0.0000000000	        0.0000000000	
        0.5779282723	       46.2523318278	      228.0336518824	       14.7585831132	        0.3587356571	        0.0000000000	        0.0304411459	     -190.9692678075	      269.2688553128	      -15.2613292615	        0.9214309601	        0.0000000000	       -0.0656399469	        0.0000000000	        0.0000000000	        0.0000000000	        0.0000000000	        0.0000000000	        0.0000000000	
        0.5890422775	       27.9295543522	      185.6735932232	       25.6446608444	        0.3629149541	        0.0000000000	        0.0285268574	     -120.3988833825	      559.2066152204	        2.4088008665	        0.9131376840	        0.0000000000	       -0.0647914056	        0.0000000000	        0.0000000000	        0.0000000000	        0.0000000000	        0.0000000000	        0.0000000000	
        0.6001562828	       23.2661589712	      152.2194944821	       25.1953745275	        0.3630846186	        0.0000000000	        0.0284682701	     -135.0892840178	      791.0812315397	       12.1933837503	        0.9097309925	        0.0000000000	       -0.0635691375	        0.0000000000	        0.0000000000	        0.0000000000	        0.0000000000	        0.0000000000	        0.0000000000	
        0.6112702880	       15.0731692020	      108.4971471810	       22.3035684642	        0.3632148500	        0.0000000000	        0.0283965967	     -136.0390684647	      857.4914965032	       16.9093847274	        0.9075044455	        0.0000000000	       -0.0629848594	        0.0000000000	        0.0000000000	        0.0000000000	        0.0000000000	        0.0000000000	        0.0000000000	
        0.6223842932	       -0.7548495690	       58.7587535662	       15.6254444345	        0.3623768361	        0.0000000000	        0.0282716562	     -129.5936611311	      845.4152910965	       19.7138118934	        0.9073024360	        0.0000000000	       -0.0625440938	        0.0000000000	        0.0000000000	        0.0000000000	        0.0000000000	        0.0000000000	        0.0000000000	
        0.6334982985	       -6.2029933390	        9.0847773180	        2.0783576260	        0.0000000000	        0.0000000000	        0.0000000000	     -118.3953863063	      819.8726348206	       21.2952951209	        0.9082415760	        0.0000000000	       -0.0622197825	        0.0000000000	        0.0000000000	        0.0000000000	        0.0000000000	        0.0000000000	        0.0000000000	
        0.6446123037	       -0.9301685712	        0.7767216961	       -0.0597167573	        0.0000000000	        0.0000000000	        0.0000000000	     -105.1122201109	      791.1120701219	       22.2733400128	        0.9095337911	        0.0000000000	       -0.0619999631	        0.0000000000	        0.0000000000	        0.0000000000	        0.0000000000	        0.0000000000	        0.0000000000	
        0.6557263089	       -5.8033421009	        4.1488380132	       -0.4839688869	        0.0000000000	        0.0000000000	        0.0000000000	      -92.9936139275	      764.2421774684	       21.1174562503	        0.9109934844	        0.0000000000	       -0.0618906966	        0.0000000000	        0.0000000000	        0.0000000000	        0.0000000000	        0.0000000000	        0.0000000000	
        0.6668403142	       -3.8512364939	        2.4150071484	       -0.3313031211	        0.0000000000	        0.0000000000	        0.0000000000	      -79.2088894298	      742.5217988944	       21.9079358690	        0.9135397776	        0.0000000000	       -0.0616994905	        0.0000000000	        0.0000000000	        0.0000000000	        0.0000000000	        0.0000000000	        0.0000000000	
        0.6779543194	       -2.6094997213	        1.4932544976	       -0.2226558199	        0.0000000000	        0.0000000000	        0.0000000000	      -67.5781356698	      721.7374333148	       23.1443614114	        0.9177815669	        0.0000000000	       -0.0613070222	        0.0000000000	        0.0000000000	        0.0000000000	        0.0000000000	        0.0000000000	        0.0000000000	
        0.6890683247	       -1.9877345255	        1.0572651085	       -0.1632280553	        0.0000000000	        0.0000000000	        0.0000000000	      -59.5670675934	      700.8865975490	       23.7777934459	        0.9230419019	        0.0000000000	       -0.0607671860	        0.0000000000	        0.0000000000	        0.0000000000	        0.0000000000	        0.0000000000	        0.0000000000	
        0.7001823299	       -1.5114725770	        0.7602588436	       -0.1188743300	        0.0000000000	        0.0000000000	        0.0000000000	      -52.6735505008	      680.5819575710	       24.0965051025	        0.9287544656	        0.0000000000	       -0.0601419641	        0.0000000000	        0.0000000000	        0.0000000000	        0.0000000000	        0.0000000000	        0.0000000000	
        0.7112963351	       -0.9932739970	        0.4773924739	       -0.0743503424	        0.0000000000	        0.0000000000	        0.0000000000	      -47.0087984878	      661.1944314297	       23.9995387924	        0.9347232300	        0.0000000000	       -0.0594479160	        0.0000000000	        0.0000000000	        0.0000000000	        0.0000000000	        0.0000000000	        0.0000000000	
        0.7224103404	       -0.6467745046	        0.2995259509	       -0.0457391835	        0.0000000000	        0.0000000000	        0.0000000000	      -42.3943265655	      643.7436266325	       23.5307273636	        0.9406689063	        0.0000000000	       -0.0587230268	        0.0000000000	        0.0000000000	        0.0000000000	        0.0000000000	        0.0000000000	        0.0000000000	
        0.7335243456	       -0.4503040454	        0.2022292059	       -0.0294693719	        0.0000000000	        0.0000000000	        0.0000000000	      -38.1149976761	      628.2166575978	       22.8227202108	        0.9463986275	        0.0000000000	       -0.0579989021	        0.0000000000	        0.0000000000	        0.0000000000	        0.0000000000	        0.0000000000	        0.0000000000	
